<svg width="148" height="138" viewBox="0 0 148 138"
	xmlns="http://www.w3.org/2000/svg">
	<g fill="none" fill-rule="evenodd">
		<g fill="rgb(152, 102, 68)">
			<path d="M65.6444 67.0524c-2.3271.3688-4.1147 2.0948-4.5743 4.4031-.0935.4629-.0935 46.7294 0 47.1964.3127 1.592 1.2531 2.9273 2.6346 3.7368.4061.2357.9006.4358 1.4672.5917l.4283.1195 26.1415.0136 26.1433.0085 1.943 1.9218c1.0706 1.0588 4.3466 4.3065 7.2803 7.215 3.87 3.8394 5.3993 5.3246 5.5505 5.4052.1742.089.2812.111.548.1152.4325 0 .7715-.1508 1.0034-.4535.3076-.4052.2897.067.2897-7.4286v-6.7751h4.2753c3.5845 0 4.3338-.0085 4.6541-.0662 1.3645-.2356 2.5811-.9562 3.3976-2.0023.6466-.8316 1.0025-1.681 1.1368-2.7042.0314-.2535.0442-7.2998.0314-23.5397-.0136-21.7078-.0178-23.1939-.0892-23.4787-.2056-.8223-.5268-1.5209-.9541-2.1033-.8292-1.1121-1.8725-1.7845-3.3347-2.1396-.2949-.0763-2.559-.0806-38.9638-.0848-31.1891-.0093-38.7192 0-39.009.0492zm77.5708 2.5356c.1478.0356.4376.1508.6466.2534.526.2535 1.0255.7511 1.2888 1.2852.3432.6986.3166-1.5878.3166 23.9543 0 22.7038 0 22.9616-.0897 23.2998-.2667 1.041-1.0518 1.8412-2.1172 2.1481-.2455.0712-.6865.0806-5.7824.0932l-5.5191.0136-.0086 6.419-.0135 6.4232-2.051-2.0286a14069.0156 14069.0156 0 01-5.773-5.7205c-2.0467-2.0328-4.057-4.0123-4.463-4.3946l-.74-.7028-26.4543-.0093c-25.1305-.0126-26.4677-.0178-26.7218-.0932-1.0748-.3154-1.8505-1.1029-2.1223-2.1575-.0847-.329-.0847-.7562-.0847-23.2905 0-25.542-.0266-23.2557.3166-23.9543.2633-.534.7621-1.0317 1.2888-1.2902.209-.0975.4903-.2085.6236-.244.2141-.0577 5.39-.067 38.7192-.067 34.1755-.0043 38.5042.0042 38.7404.0627z" fill-rule="nonzero"/>
			<path d="M128.8935 89.7345H97.226c-.764 0-1.3843.4041-1.3843.9048 0 .4987.6204.9037 1.3843.9037h31.6675c.7653 0 1.3857-.405 1.3857-.9037 0-.5007-.6204-.9048-1.3857-.9048M84.9703 89.7345h-7.7357c-.9588 0-1.7346.405-1.7346.9048 0 .4987.7758.9037 1.7346.9037h7.7357c.957 0 1.7328-.405 1.7328-.9037 0-.4997-.7758-.9048-1.7328-.9048M88.1875 100.4575c0 .4997-.8117.9038-1.8111.9038H77.313c-1.0013 0-1.813-.404-1.813-.9038 0-.4996.8117-.9047 1.813-.9047h9.0634c.9994 0 1.8111.405 1.8111.9047zm16.3125 0c0 .4997-.8116.9038-1.8128.9038h-9.062c-.9992 0-1.8127-.404-1.8127-.9038 0-.4996.8135-.9047 1.8128-.9047h9.062c1.0011 0 1.8127.405 1.8127.9047zm14.5 0c0 .4997-.8352.9038-1.8656.9038h-5.3313c-1.0323 0-1.8656-.404-1.8656-.9038 0-.4996.8333-.9047 1.8656-.9047h5.3313c1.0304 0 1.8656.405 1.8656.9047z"/>
		</g>
		<path d="M11.5 80c-.8269 0-1.5.8295-1.5 1.8527v4.2965C10 87.1725 10.6731 88 11.5 88s1.5-.8275 1.5-1.8508v-4.2965C13 80.8295 12.3269 80 11.5 80M6.1492 74H1.8508C.8295 74 0 74.6715 0 75.5S.8295 77 1.8508 77h4.2984C7.1705 77 8 76.3285 8 75.5S7.1705 74 6.1492 74M11.5 64c-.8269 0-1.5.8277-1.5 1.8512v4.2956C10 71.1703 10.6731 72 11.5 72s1.5-.8297 1.5-1.8532v-4.2956C13 64.8277 12.3269 64 11.5 64M22.1477 74h-4.2974C16.8293 74 16 74.6715 16 75.5s.8293 1.5 1.8503 1.5h4.2974C23.1707 77 24 76.3285 24 75.5s-.8293-1.5-1.8523-1.5" fill="rgb(152, 102, 68)"/>
		<path d="M112.3084 19s1.2672 9.3442-9.3084 9.131c0 0 9.088.0951 8.845 8.869 0 0 .8179-6.9016 9.155-8.4426 0 0-7.0448 1.6649-8.6916-9.5574M22.8735 16.5134c-3.4459 0-6.248 2.8716-6.248 6.3989 0 3.529 2.8021 6.3989 6.248 6.3989h38.2512c3.4477 0 6.248-2.8698 6.248-6.399 0-3.5272-2.8003-6.3988-6.248-6.3988h-4.4142l-.1768-1.1339c-.6635-4.2789-4.6324-7.2687-9.052-6.1902l-.9665.2364-.485-.8883c-1.9655-3.6085-5.6837-5.8467-9.7067-5.8467-6.1254 0-11.1094 5.1043-11.1094 11.3776 0 .3324.0216.6612.0505.9843l.1208 1.4608h-2.5119zM61.1247 32H22.8735C17.9815 32 14 27.9243 14 22.9123c0-4.9141 3.8282-8.9308 8.5904-9.084C22.7166 6.1828 28.8294 0 36.3235 0c4.654 0 8.9781 2.4229 11.5026 6.386 5.1535-.7517 9.759 2.5688 11.0626 7.4386h2.236c4.8938 0 8.8753 4.0775 8.8753 9.0877C70 27.9243 66.0185 32 61.1247 32z" fill="rgb(152, 102, 68)"/>
	</g>
</svg>