<svg xmlns="http://www.w3.org/2000/svg" width="49" height="48" fill="none"><path fill="rgb(152, 102, 68)" fill-rule="evenodd" d="M.723 1.314a3.437 3.437 0 0 0 .583 4.806l10.863 8.552a1.374 1.374 0 0 1 0 2.156L1.306 25.38a3.437 3.437 0 0 0-.583 4.806 3.39 3.39 0 0 0 4.779.586l10.863-8.55c4.18-3.29 4.18-9.653 0-12.943L5.502.728a3.39 3.39 0 0 0-4.779.586Z" clip-rule="evenodd"/><path fill="rgb(152, 102, 68)" fill-rule="evenodd" d="M10.972 35.658a5.486 5.486 0 0 1 5.485-5.486h6.857a5.486 5.486 0 0 1 5.486 5.486v6.857a5.486 5.486 0 0 1-5.486 5.486h-6.857a5.486 5.486 0 0 1-5.485-5.486v-6.857Zm12.342 0h-6.857v6.857h6.857v-6.857ZM26.229 15.086a5.486 5.486 0 0 1 5.485-5.485h10.972a5.486 5.486 0 0 1 5.485 5.485v10.972a5.486 5.486 0 0 1-5.485 5.486H31.714a5.486 5.486 0 0 1-5.485-5.486V15.086Zm16.457 0H31.714v10.972h10.972V15.086Z" clip-rule="evenodd"/></svg>