<svg width="28" height="24" xmlns="http://www.w3.org/2000/svg"><path d="M13.852 24l-.57-.32C12.748 23.36 0 16.06 0 8.19A8.191 8.191 0 018.19 0c2.457 0 4.45 1.602 5.662 2.884C15.062 1.567 17.056 0 19.513 0a8.191 8.191 0 018.19 8.19c0 7.834-12.712 15.17-13.282 15.49l-.57.32zM8.19 2.315A5.881 5.881 0 002.315 8.19c0 5.128 7.833 10.932 11.537 13.14 3.667-2.208 11.537-8.012 11.537-13.14a5.881 5.881 0 00-5.876-5.875c-2.279 0-4.201 2.35-4.736 3.062l-.925 1.246-.926-1.246c-.534-.712-2.457-3.062-4.736-3.062z" fill="#5F5CFF"/></svg>