<svg width="970" height="347" viewBox="0 0 970 347" fill="none" xmlns="http://www.w3.org/2000/svg">
<path d="M24.5662 167.216H0V148.978H68.7488V167.216H44.5951V239.739H24.5662V167.216ZM73.8362 148.978H93.1928V182.073C95.79 176.473 102.818 172.694 111.526 172.694C127.124 172.694 135.832 182.975 135.832 199.913V239.693H116.476V202.238C116.476 194.68 112.58 189.861 105.308 189.861C98.2803 189.861 93.2081 195.2 93.2081 202.881V239.739H73.8362V148.978ZM142.478 206.798C142.478 185.959 157.297 172.556 177.189 172.556C197.08 172.556 210.341 187.397 210.341 205.757C210.329 207.89 210.201 210.019 209.959 212.138H161.85C162.247 219.941 168.878 224.898 179.144 224.898C191.626 224.898 198.638 221.119 202.412 218.518V235.44C196.301 239.342 189.548 241.422 178.105 241.422C156.915 241.422 142.478 228.019 142.478 207.441V206.798ZM190.847 199.5C190.847 193.64 184.858 188.698 177.189 188.698C169.137 188.698 162.369 193.517 161.911 199.5H190.847ZM248.168 145.735L296.017 197.939L343.851 145.735V239.739H324.617V193.64L296.017 225.77L267.418 193.64V239.739H248.168V145.735ZM386.628 172.158C406.779 172.158 423.019 187.458 423.019 206.92C423.019 226.382 406.779 241.744 386.628 241.744C366.477 241.744 350.222 226.443 350.222 206.982C350.222 187.52 366.34 172.158 386.628 172.158ZM386.628 224.179C390.03 224.206 393.364 223.221 396.205 221.348C399.047 219.475 401.27 216.799 402.591 213.659C403.911 210.519 404.271 207.057 403.624 203.712C402.977 200.367 401.353 197.29 398.957 194.871C396.561 192.452 393.501 190.8 390.167 190.125C386.832 189.45 383.372 189.783 380.226 191.08C377.081 192.378 374.39 194.582 372.497 197.413C370.604 200.244 369.594 203.574 369.594 206.982C369.573 209.231 370 211.462 370.848 213.545C371.695 215.629 372.948 217.522 374.533 219.117C376.118 220.711 378.003 221.974 380.08 222.833C382.156 223.691 384.382 224.128 386.628 224.118V224.179ZM433.683 191.697H424.975V174.117H433.683V148.978H452.535V174.117H466.957V191.697H452.535V239.739H433.683V191.697ZM472.289 148.978H491.661V239.739H472.289V148.978ZM498.047 206.798C498.047 185.959 512.866 172.556 532.758 172.556C552.649 172.556 565.91 187.397 565.91 205.757C565.897 207.89 565.765 210.02 565.513 212.138H517.404C517.786 219.941 524.416 224.898 534.698 224.898C547.164 224.898 554.192 221.119 557.965 218.518V235.44C551.854 239.342 545.086 241.422 533.644 241.422C512.454 241.422 498.032 228.019 498.032 207.441L498.047 206.798ZM546.4 199.5C546.4 193.64 540.427 188.698 532.758 188.698C524.691 188.698 517.938 193.517 517.48 199.5H546.4ZM563.16 174.117H583.311L600.727 217.86L618.419 174.117H638.6L599.948 265H580.087L590.613 240.902L563.16 174.117ZM671.065 148.978H730.739V167.216H691.017V185.837H727.21V203.677H691.078V239.739H671.065V148.978ZM770.124 172.158C790.275 172.158 806.531 187.458 806.531 206.92C806.531 226.382 790.275 241.744 770.124 241.744C749.973 241.744 733.718 226.443 733.718 206.982C733.718 187.52 749.836 172.158 770.124 172.158ZM770.124 224.179C773.526 224.206 776.86 223.221 779.702 221.348C782.544 219.475 784.766 216.799 786.087 213.659C787.408 210.519 787.767 207.057 787.12 203.712C786.473 200.367 784.849 197.29 782.453 194.871C780.057 192.452 776.997 190.8 773.663 190.125C770.328 189.45 766.868 189.783 763.723 191.08C760.577 192.378 757.887 194.582 755.994 197.413C754.101 200.244 753.09 203.574 753.09 206.982C753.07 209.231 753.496 211.462 754.344 213.545C755.192 215.629 756.444 217.522 758.029 219.117C759.614 220.711 761.499 221.974 763.576 222.833C765.652 223.691 767.878 224.128 770.124 224.118V224.179ZM846.817 172.158C866.968 172.158 883.224 187.458 883.224 206.92C883.224 226.382 866.968 241.744 846.817 241.744C826.666 241.744 810.411 226.443 810.411 206.982C810.411 187.52 826.514 172.158 846.817 172.158ZM846.817 224.179C850.219 224.206 853.553 223.221 856.395 221.348C859.237 219.475 861.459 216.799 862.78 213.659C864.101 210.519 864.46 207.057 863.814 203.712C863.167 200.367 861.542 197.29 859.146 194.871C856.75 192.452 853.691 190.8 850.356 190.125C847.021 189.45 843.561 189.783 840.416 191.08C837.27 192.378 834.58 194.582 832.687 197.413C830.794 200.244 829.783 203.574 829.783 206.982C829.763 209.231 830.189 211.462 831.037 213.545C831.885 215.629 833.138 217.522 834.722 219.117C836.307 220.711 838.193 221.974 840.269 222.833C842.345 223.691 844.571 224.128 846.817 224.118V224.179ZM890.236 148.978H909.608V239.739H890.236V148.978Z" fill="black"/>
<path d="M956.907 139.064C964.13 139.064 969.985 133.2 969.985 125.967C969.985 118.734 964.13 112.87 956.907 112.87C949.685 112.87 943.83 118.734 943.83 125.967C943.83 133.2 949.685 139.064 956.907 139.064Z" fill="#FFB71B"/>
<path d="M878.579 0C916.529 0 948.382 42.7029 957.381 100.446C957.46 100.963 957.333 101.49 957.027 101.914C956.721 102.338 956.261 102.624 955.746 102.71C955.303 102.785 954.848 102.706 954.457 102.486C954.065 102.266 953.76 101.919 953.592 101.502C944.578 79.4235 929.148 64.7812 911.579 64.7812C886.401 64.7812 864.31 95.6111 861.82 138.008C858.566 145.046 832.487 150.432 808.471 151.35V50.0471C823.458 19.5537 852.913 0 878.579 0Z" fill="#773DBD"/>
<path d="M660.035 139.064C667.257 139.064 673.112 133.2 673.112 125.967C673.112 118.734 667.257 112.87 660.035 112.87C652.812 112.87 646.957 118.734 646.957 125.967C646.957 133.2 652.812 139.064 660.035 139.064Z" fill="#FFB71B"/>
<path d="M738.362 0C700.413 0 668.559 42.7029 659.561 100.446C659.481 100.963 659.608 101.49 659.914 101.914C660.22 102.338 660.681 102.624 661.196 102.71C661.638 102.785 662.093 102.706 662.485 102.486C662.877 102.266 663.182 101.919 663.35 101.502C672.348 79.4235 687.794 64.7812 705.363 64.7812C730.54 64.7812 752.632 95.6111 755.122 138.008C758.376 145.046 784.455 150.432 808.471 151.35V50.0471C793.56 19.5537 764.029 0 738.362 0Z" fill="#E81F76"/>
<path d="M920.837 235.394C920.813 234.114 921.17 232.855 921.863 231.779C922.556 230.704 923.554 229.859 924.729 229.353C925.903 228.848 927.202 228.705 928.458 228.942C929.715 229.179 930.872 229.785 931.783 230.684C932.693 231.583 933.316 232.733 933.571 233.988C933.825 235.243 933.701 236.545 933.213 237.729C932.725 238.913 931.897 239.924 930.832 240.633C929.768 241.343 928.517 241.719 927.238 241.713C926.399 241.738 925.563 241.592 924.781 241.285C923.999 240.977 923.288 240.514 922.689 239.924C922.091 239.333 921.619 238.627 921.3 237.849C920.982 237.07 920.824 236.235 920.837 235.394V235.394ZM932.402 235.394C932.402 234.027 931.86 232.715 930.894 231.748C929.929 230.781 928.619 230.238 927.254 230.238C925.888 230.238 924.579 230.781 923.613 231.748C922.648 232.715 922.105 234.027 922.105 235.394C922.105 236.762 922.648 238.073 923.613 239.04C924.579 240.007 925.888 240.55 927.254 240.55C928.619 240.55 929.929 240.007 930.894 239.04C931.86 238.073 932.402 236.762 932.402 235.394ZM924.886 231.615H927.468C927.774 231.596 928.08 231.64 928.368 231.746C928.656 231.852 928.919 232.017 929.141 232.23C929.362 232.442 929.536 232.699 929.653 232.983C929.77 233.267 929.827 233.572 929.82 233.879C929.83 234.306 929.724 234.728 929.514 235.099C929.305 235.471 928.999 235.779 928.629 235.991L930.37 238.898H928.842L927.315 236.236H926.367V238.898H925.008L924.886 231.615ZM927.437 235.119C927.581 235.111 927.722 235.075 927.851 235.012C927.981 234.949 928.097 234.861 928.192 234.752C928.288 234.644 928.36 234.518 928.406 234.381C928.452 234.244 928.471 234.1 928.461 233.956C928.467 233.817 928.445 233.679 928.396 233.549C928.348 233.42 928.273 233.301 928.177 233.201C928.082 233.101 927.967 233.021 927.84 232.967C927.712 232.913 927.575 232.885 927.437 232.885H926.245V235.119H927.437Z" fill="black"/>
</svg>
