<svg width="141" height="48" viewBox="0 0 141 48" fill="none" xmlns="http://www.w3.org/2000/svg">
<path fill-rule="evenodd" clip-rule="evenodd" d="M48.4652 36.0003C54.9377 36.0003 60.2117 30.9092 60.2117 24.0002C60.2117 17.0425 54.9377 12 48.4652 12C41.9928 12 36.7188 17.0425 36.7188 24.0002C36.7188 30.9092 41.9928 36.0003 48.4652 36.0003ZM48.4655 16.7287C52.0132 16.7287 55.0699 19.6827 55.0699 24.0002C55.0699 28.269 52.0132 31.2717 48.4655 31.2717C44.9178 31.2717 41.8611 28.2744 41.8611 24.0002C41.8611 19.6827 44.9178 16.7287 48.4655 16.7287Z" fill="#EA4335"/>
<path fill-rule="evenodd" clip-rule="evenodd" d="M72.9359 36.0003C79.4084 36.0003 84.6824 30.9092 84.6824 24.0002C84.6824 17.0425 79.4084 12 72.9359 12C66.4635 12 61.1895 17.0479 61.1895 24.0002C61.1895 30.9092 66.4635 36.0003 72.9359 36.0003ZM72.9362 16.7287C76.4839 16.7287 79.5406 19.6827 79.5406 24.0002C79.5406 28.269 76.4839 31.2717 72.9362 31.2717C69.3885 31.2717 66.3318 28.2744 66.3318 24.0002C66.3318 19.6827 69.3885 16.7287 72.9362 16.7287Z" fill="#FBBC05"/>
<path fill-rule="evenodd" clip-rule="evenodd" d="M109.155 35.4291V13.7356H104.257V15.7028H104.077C102.917 14.2806 100.693 13 97.8924 13C92.0203 13 86.6406 18.3076 86.6406 25.13C86.6406 31.9034 92.0203 37.1674 97.8924 37.1674C100.699 37.1674 102.923 35.8868 104.077 34.421H104.257V36.1593C104.257 40.7857 101.858 43.2433 97.9877 43.2433C94.8319 43.2433 92.8728 40.9219 92.0732 38.9547L87.5831 40.8783C88.8751 44.0825 92.3009 48.0005 97.993 48.0005C104.04 48.0005 109.155 44.3549 109.155 35.4291ZM98.3525 17.7637C101.863 17.7637 104.622 20.8752 104.622 25.131C104.622 29.3433 101.863 32.4112 98.3525 32.4112C94.7943 32.4112 91.8133 29.3433 91.8133 25.131C91.8133 20.8752 94.7943 17.7637 98.3525 17.7637Z" fill="#4285F4"/>
<path d="M116.008 2V37.0005H111.113V2H116.008Z" fill="#34A853"/>
<path fill-rule="evenodd" clip-rule="evenodd" d="M139.279 30.682L135.299 27.9551C133.973 29.957 132.162 31.2771 129.551 31.2771C126.945 31.2771 125.087 30.0489 123.892 27.6413L139.5 20.9974L138.968 19.634C138 16.9559 135.036 12 128.977 12C122.96 12 117.965 16.8639 117.965 24.0002C117.965 30.7306 122.918 36.0003 129.551 36.0003C134.899 36.0003 137.995 32.6351 139.279 30.682ZM133.483 19.1841L123.05 23.6368C122.918 19.0056 126.545 16.6412 129.151 16.6412C131.183 16.6412 132.91 17.6854 133.483 19.1841Z" fill="#EA4335"/>
<path d="M18.3323 21.3975V16.4793H34.5207C34.6789 17.3365 34.7606 18.3504 34.7606 19.448C34.7606 23.138 33.7753 27.7007 30.5999 30.9517C27.5113 34.2444 23.565 36.0005 18.3374 36.0005C8.64781 36.0005 0.5 27.9202 0.5 18.0003C0.5 8.08025 8.64781 0 18.3374 0C23.6978 0 27.5164 2.15334 30.3855 4.96L26.9957 8.43043C24.9383 6.45479 22.1509 4.91819 18.3323 4.91819C11.2565 4.91819 5.72256 10.7562 5.72256 18.0003C5.72256 25.2443 11.2565 31.0823 18.3323 31.0823C22.9218 31.0823 25.5356 29.1955 27.2101 27.4812C28.5681 26.091 29.4615 24.1049 29.8137 21.3923L18.3323 21.3975Z" fill="#4285F4"/>
</svg>
