<svg width="139" height="48" viewBox="0 0 139 48" fill="none" xmlns="http://www.w3.org/2000/svg">
<path fill-rule="evenodd" clip-rule="evenodd" d="M17.4022 17.5418L24.7681 30.3925H18.1896L11.1328 18.0619H6.25125V30.3925H0.5V0H13.5252C20.1907 0 24.3767 3.34393 24.3718 8.5978C24.3718 12.8966 22.0617 15.8484 17.4022 17.5418ZM101.172 30.3922V0.598646H95.6823V30.3922H101.172ZM81.0819 8.24871C84.306 8.24871 87.0945 9.24646 89.4046 11.2876C91.7575 13.2843 92.9331 16.0638 92.9331 19.6245C92.9331 23.1849 91.7592 25.9626 89.4046 28.004C87.0945 30.0008 84.306 31 81.0819 31C77.9021 31 75.1119 30.0008 72.8018 28.004C70.4917 25.9626 69.3179 23.1849 69.3179 19.6245C69.3179 16.0638 70.4917 13.2843 72.8018 11.2876C75.1134 9.2482 77.9021 8.24871 81.0819 8.24871ZM74.8946 19.6266C74.8946 21.4922 75.508 23.0132 76.7263 24.1846C77.9479 25.3135 79.3848 25.878 81.08 25.878C82.7785 25.878 84.2616 25.3135 85.4799 24.1846C86.7457 23.0132 87.3541 21.4937 87.3541 19.6266C87.3541 17.7593 86.741 16.24 85.4799 15.1111C84.2598 13.9395 82.7767 13.375 81.08 13.375C79.3848 13.375 77.9447 13.9395 76.7263 15.1111C75.5031 16.24 74.8946 17.7591 74.8946 19.6266ZM118.892 20.7447V8.85706H124.395V21.6569C124.395 26.5184 121.263 30.9995 114.423 30.9995H114.381C107.498 30.9995 104.361 26.6151 104.361 21.6567V8.85681H109.861V20.7447C109.861 23.6112 111.374 25.508 114.381 25.508C117.339 25.508 118.892 23.6095 118.892 20.7447ZM63.4739 8.85681L57.984 23.4453L52.494 8.85681H46.6555L55.4158 30.3923H60.5589L69.3174 8.85681H63.4739ZM43.7211 11.2876C45.6826 13.3287 46.6838 15.8899 46.6838 19.0156H46.6823V20.9273H30.0415C30.3901 24.2268 32.7002 26.3106 35.967 26.3106C38.6242 26.3106 40.5872 25.0078 41.9356 22.3595L46.0294 24.7042C43.9859 28.9162 40.6317 31 35.88 31C32.7872 31 30.173 29.9581 27.9929 27.8299C25.8571 25.7035 24.7686 22.9684 24.7686 19.6245C24.7686 16.2803 25.8554 13.5894 28.0357 11.4614C30.2585 9.335 32.9615 8.24871 36.1413 8.24871C39.2356 8.24871 41.7595 9.24646 43.7211 11.2876ZM35.9629 12.4172C39.0557 12.4172 41.106 14.1533 41.6272 16.9327H30.0374C30.8676 14.3715 33.1299 12.4172 35.9629 12.4172ZM13.5244 5.03493C16.923 5.03493 18.623 6.38039 18.623 9.02865C18.623 11.6769 16.9213 13.0224 13.5244 13.0224H6.25048V5.03493H13.5244ZM127.303 24.6153C127.303 28.1413 130.169 30.9978 133.702 30.9978H137.5V26.1346H134.672C133.633 26.1346 132.793 25.2978 132.793 24.2641V13.2921H137.5V8.86362H132.793V3.03734H127.303V24.6153Z" fill="#21262E"/>
</svg>
