<svg width="222" height="48" viewBox="0 0 222 48" fill="none" xmlns="http://www.w3.org/2000/svg">
<path d="M146.942 32.5436C145.344 32.5436 144.001 31.2058 144.001 29.5452C144.001 27.9076 145.367 26.593 146.942 26.593C148.609 26.593 149.929 27.9307 149.929 29.5452C149.929 31.2289 148.609 32.5436 146.942 32.5436ZM162.018 32.6589C157.178 32.6589 152.477 28.9686 152.477 22.7643C152.477 16.4678 157.294 12.7775 162.134 12.7775C165.515 12.7775 168.502 14.5996 170.193 16.8829L167.46 19.2355C165.978 17.4595 164.195 16.4678 162.134 16.4678C159.077 16.4678 156.275 18.4744 156.275 22.7643C156.275 26.8928 158.892 28.9917 162.041 28.9917C164.542 28.9917 166.534 27.6309 167.483 25.7396L170.54 27.6309C168.641 30.8829 165.492 32.6589 162.018 32.6589V32.6589ZM197.936 16.0526C199.001 13.9538 201.086 12.593 203.587 12.593C205.926 12.593 207.825 13.7693 208.844 15.6605C210.21 13.7693 212.132 12.593 214.517 12.593C218.269 12.593 221.001 15.5913 221.001 20.0197V32.0823H216.949V20.2503C216.949 17.7824 215.583 16.2602 213.568 16.2602C211.553 16.2602 210.094 17.9208 210.094 20.2503V32.0823H206.342V20.2503C206.342 17.9439 204.86 16.2602 202.776 16.2602C200.646 16.2602 199.21 17.9208 199.21 20.2503V32.0823H195.319V12.8928H199.001V16.2602L197.936 16.0526V16.0526ZM181.934 28.8763C178.367 28.8763 175.658 26.1548 175.658 22.4645C175.658 18.7742 178.391 16.2833 181.934 16.2833C185.269 16.2833 187.793 18.7973 187.793 22.4645C187.793 26.1317 185.269 28.8763 181.934 28.8763ZM181.818 32.5436C187.608 32.5436 191.591 28.3228 191.591 22.5567C191.591 16.7445 187.608 12.5699 181.818 12.5699C176.167 12.5699 171.86 16.7445 171.86 22.5567C171.86 28.3459 176.167 32.5436 181.818 32.5436ZM131.658 32.5436C134.992 32.5436 138.35 30.6523 140.134 27.4925L137.216 25.6012C136.15 27.4925 134.344 28.8533 131.658 28.8533C128.717 28.8533 126.007 26.6622 126.007 22.5567C126.007 18.2437 128.693 16.2602 131.658 16.2602C133.858 16.2602 135.641 17.1597 137.216 19.074L139.786 16.7676C138.119 14.3689 135.201 12.593 131.843 12.593C126.91 12.593 122.07 16.2833 122.07 22.5798C122.07 28.8763 126.818 32.5436 131.658 32.5436V32.5436ZM116.582 9.52543C118.295 9.52543 119.569 8.23383 119.569 6.57321C119.569 4.86645 118.272 3.57485 116.582 3.57485C114.914 3.57485 113.641 4.86645 113.641 6.57321C113.641 8.23383 114.914 9.52543 116.582 9.52543ZM114.66 13.1926V32.0823H118.411V13.1926H114.66V13.1926ZM105.559 3.25195V32.0823H109.658V3.25195H105.559ZM92.7753 32.5436C98.2174 32.5436 102.015 28.3228 102.015 22.5567C102.015 17.0905 98.009 12.5699 92.7753 12.5699C89.9268 12.5699 87.8426 13.7462 86.6847 15.6375V3.25195H82.5162V32.0823H86.6847V29.6836C87.8426 31.4826 89.9268 32.5436 92.7753 32.5436ZM92.4279 28.6918C88.6763 28.6918 86.1521 26.1548 86.1521 22.5798C86.1521 19.0971 88.6994 16.4678 92.4279 16.4678C95.809 16.4678 98.2174 18.8895 98.2174 22.5798C98.2174 26.1317 95.809 28.6918 92.4279 28.6918ZM68.8761 32.359C70.8909 32.359 72.5583 31.4826 73.8088 29.7066V32.1053H77.6994V13.1926H73.693V24.1251C73.693 26.8928 72.0256 28.6688 69.293 28.6688C66.9772 28.6688 65.7266 26.6622 65.7266 24.1251V13.1926H61.6508V24.7709C61.6508 29.1762 64.3835 32.359 68.8761 32.359V32.359ZM48.6591 28.6918C44.7917 28.6918 42.4991 26.1548 42.4991 22.5798C42.4991 19.0971 44.8149 16.4678 48.6591 16.4678C52.3413 16.4678 54.6108 19.0971 54.6108 22.5798C54.6108 26.1317 52.3413 28.6918 48.6591 28.6918ZM42.6844 13.1926H38.7012V38.8401H42.6844V29.7066C44.3981 31.4826 46.4591 32.5436 49.1918 32.5436C54.6108 32.5436 58.5013 28.023 58.5013 22.5567C58.5013 16.7445 54.6108 12.5699 49.1918 12.5699C46.4591 12.5699 44.3749 13.7462 42.6844 15.6375V13.1926V13.1926Z" fill="#1A1B23"/>
<path d="M26.1497 12.5931C26.1497 19.5354 20.4991 25.1862 13.5748 25.1862C6.65057 25.1862 1 19.5354 1 12.5931C1 5.65074 6.65057 0 13.5748 0C20.4991 0 26.1497 5.65074 26.1497 12.5931ZM13.5748 35.6573C13.5748 39.14 10.7264 42 7.299 42C3.84844 42 1 39.1631 1 35.6573C1 32.2438 3.84844 29.4069 7.27584 29.4069C10.7032 29.4069 13.5748 32.2438 13.5748 35.6573Z" fill="#0000FF"/>
</svg>
