<svg xmlns="http://www.w3.org/2000/svg" width="32" height="32" fill="none"><path fill="rgb(152, 102, 68)" fill-rule="evenodd" d="M0 25.6A2.4 2.4 0 0 0 2.4 28h8.15a8 8 0 0 0 6.186-2.927l14.72-17.951a2.4 2.4 0 1 0-3.712-3.044L13.024 22.03A3.2 3.2 0 0 1 10.55 23.2H2.4A2.4 2.4 0 0 0 0 25.6Z" clip-rule="evenodd"/><path fill="rgb(152, 102, 68)" fill-rule="evenodd" d="M0 5.6a2.4 2.4 0 0 1 2.4-2.4h8.15a8 8 0 0 1 6.186 2.927l14.72 17.951a2.4 2.4 0 1 1-3.712 3.044L13.024 9.17A3.2 3.2 0 0 0 10.55 8H2.4A2.4 2.4 0 0 1 0 5.6Z" clip-rule="evenodd"/></svg>