<svg xmlns="http://www.w3.org/2000/svg" width="32" height="32" fill="none"><path fill="rgb(152, 102, 68)" d="M2.286 20.537A2.292 2.292 0 0 0 0 22.822v6.857a2.292 2.292 0 0 0 2.286 2.286 2.292 2.292 0 0 0 2.285-2.286v-6.857a2.292 2.292 0 0 0-2.285-2.285Z"/><path fill="rgb(152, 102, 68)" d="M11.428 4.536a2.293 2.293 0 0 0-2.285 2.286v16a2.292 2.292 0 0 0 2.285 2.285 2.292 2.292 0 0 0 2.286-2.286v-16a2.293 2.293 0 0 0-2.286-2.285Z"/><path fill="rgb(152, 102, 68)" d="M20.572 15.965a2.292 2.292 0 0 0-2.286 2.285v9.143a2.292 2.292 0 0 0 2.286 2.286 2.292 2.292 0 0 0 2.285-2.286V18.25a2.292 2.292 0 0 0-2.285-2.285Z"/><path fill="rgb(152, 102, 68)" d="M29.715 0a2.292 2.292 0 0 0-2.286 2.286V16a2.292 2.292 0 0 0 2.286 2.286A2.292 2.292 0 0 0 32 16V2.286A2.292 2.292 0 0 0 29.715 0Z"/></svg>